<svg xmlns="http://www.w3.org/2000/svg" viewBox="0 0 2462.625 2040" width="2462.625" height="2040">
  <g stroke="#475569" stroke-width="2" fill="none">
    <line x1="1310.172" y1="40" x2="724.469" y2="96"/>
    <line x1="1310.172" y1="40" x2="920.469" y2="96"/>
    <line x1="1310.172" y1="40" x2="1264.271" y2="96"/>
    <line x1="1310.172" y1="40" x2="1580.073" y2="96"/>
    <line x1="1310.172" y1="40" x2="1895.875" y2="96"/>
    <line x1="724.469" y1="96" x2="584.469" y2="152"/>
    <line x1="724.469" y1="96" x2="640.469" y2="152"/>
    <line x1="724.469" y1="96" x2="724.469" y2="152"/>
    <line x1="724.469" y1="96" x2="808.469" y2="152"/>
    <line x1="724.469" y1="96" x2="864.469" y2="152"/>
    <line x1="640.469" y1="152" x2="612.469" y2="208"/>
    <line x1="640.469" y1="152" x2="668.469" y2="208"/>
    <line x1="668.469" y1="208" x2="640.469" y2="264"/>
    <line x1="668.469" y1="208" x2="696.469" y2="264"/>
    <line x1="808.469" y1="152" x2="780.469" y2="208"/>
    <line x1="808.469" y1="152" x2="836.469" y2="208"/>
    <line x1="780.469" y1="208" x2="752.469" y2="264"/>
    <line x1="780.469" y1="208" x2="808.469" y2="264"/>
    <line x1="920.469" y1="96" x2="920.469" y2="152"/>
    <line x1="920.469" y1="152" x2="920.469" y2="208"/>
    <line x1="920.469" y1="208" x2="920.469" y2="264"/>
    <line x1="920.469" y1="264" x2="495" y2="320"/>
    <line x1="920.469" y1="264" x2="803" y2="320"/>
    <line x1="920.469" y1="264" x2="1002.646" y2="320"/>
    <line x1="920.469" y1="264" x2="1174.292" y2="320"/>
    <line x1="920.469" y1="264" x2="1345.938" y2="320"/>
    <line x1="495" y1="320" x2="383" y2="376"/>
    <line x1="495" y1="320" x2="439" y2="376"/>
    <line x1="495" y1="320" x2="495" y2="376"/>
    <line x1="495" y1="320" x2="551" y2="376"/>
    <line x1="495" y1="320" x2="607" y2="376"/>
    <line x1="439" y1="376" x2="180" y2="432"/>
    <line x1="439" y1="376" x2="376" y2="432"/>
    <line x1="439" y1="376" x2="502" y2="432"/>
    <line x1="439" y1="376" x2="600" y2="432"/>
    <line x1="439" y1="376" x2="698" y2="432"/>
    <line x1="180" y1="432" x2="40" y2="488"/>
    <line x1="180" y1="432" x2="96" y2="488"/>
    <line x1="180" y1="432" x2="180" y2="488"/>
    <line x1="180" y1="432" x2="264" y2="488"/>
    <line x1="180" y1="432" x2="320" y2="488"/>
    <line x1="96" y1="488" x2="68" y2="544"/>
    <line x1="96" y1="488" x2="124" y2="544"/>
    <line x1="124" y1="544" x2="96" y2="600"/>
    <line x1="124" y1="544" x2="152" y2="600"/>
    <line x1="264" y1="488" x2="236" y2="544"/>
    <line x1="264" y1="488" x2="292" y2="544"/>
    <line x1="236" y1="544" x2="208" y2="600"/>
    <line x1="236" y1="544" x2="264" y2="600"/>
    <line x1="376" y1="432" x2="376" y2="488"/>
    <line x1="376" y1="488" x2="376" y2="544"/>
    <line x1="376" y1="544" x2="376" y2="600"/>
    <line x1="376" y1="600" x2="194" y2="656"/>
    <line x1="376" y1="600" x2="362" y2="656"/>
    <line x1="376" y1="600" x2="446" y2="656"/>
    <line x1="376" y1="600" x2="502" y2="656"/>
    <line x1="376" y1="600" x2="558" y2="656"/>
    <line x1="194" y1="656" x2="82" y2="712"/>
    <line x1="194" y1="656" x2="138" y2="712"/>
    <line x1="194" y1="656" x2="194" y2="712"/>
    <line x1="194" y1="656" x2="250" y2="712"/>
    <line x1="194" y1="656" x2="306" y2="712"/>
    <line x1="362" y1="656" x2="362" y2="712"/>
    <line x1="362" y1="712" x2="362" y2="768"/>
    <line x1="362" y1="768" x2="362" y2="824"/>
    <line x1="362" y1="824" x2="362" y2="880"/>
    <line x1="446" y1="656" x2="418" y2="712"/>
    <line x1="446" y1="656" x2="474" y2="712"/>
    <line x1="474" y1="712" x2="446" y2="768"/>
    <line x1="474" y1="712" x2="502" y2="768"/>
    <line x1="558" y1="656" x2="558" y2="712"/>
    <line x1="558" y1="712" x2="558" y2="768"/>
    <line x1="558" y1="768" x2="446" y2="824"/>
    <line x1="558" y1="768" x2="502" y2="824"/>
    <line x1="558" y1="768" x2="558" y2="824"/>
    <line x1="558" y1="768" x2="614" y2="824"/>
    <line x1="558" y1="768" x2="670" y2="824"/>
    <line x1="502" y1="432" x2="474" y2="488"/>
    <line x1="502" y1="432" x2="530" y2="488"/>
    <line x1="530" y1="488" x2="502" y2="544"/>
    <line x1="530" y1="488" x2="558" y2="544"/>
    <line x1="698" y1="432" x2="698" y2="488"/>
    <line x1="698" y1="488" x2="698" y2="544"/>
    <line x1="698" y1="544" x2="586" y2="600"/>
    <line x1="698" y1="544" x2="642" y2="600"/>
    <line x1="698" y1="544" x2="698" y2="600"/>
    <line x1="698" y1="544" x2="754" y2="600"/>
    <line x1="698" y1="544" x2="810" y2="600"/>
    <line x1="698" y1="600" x2="642" y2="656"/>
    <line x1="698" y1="600" x2="754" y2="656"/>
    <line x1="642" y1="656" x2="614" y2="712"/>
    <line x1="642" y1="656" x2="670" y2="712"/>
    <line x1="754" y1="656" x2="726" y2="712"/>
    <line x1="754" y1="656" x2="782" y2="712"/>
    <line x1="803" y1="320" x2="803" y2="376"/>
    <line x1="803" y1="376" x2="803" y2="432"/>
    <line x1="803" y1="432" x2="803" y2="488"/>
    <line x1="803" y1="488" x2="803" y2="544"/>
    <line x1="1002.646" y1="320" x2="974.646" y2="376"/>
    <line x1="1002.646" y1="320" x2="1030.646" y2="376"/>
    <line x1="1030.646" y1="376" x2="1002.646" y2="432"/>
    <line x1="1030.646" y1="376" x2="1058.646" y2="432"/>
    <line x1="1345.938" y1="320" x2="1345.938" y2="376"/>
    <line x1="1345.938" y1="376" x2="1345.938" y2="432"/>
    <line x1="1345.938" y1="432" x2="1233.938" y2="488"/>
    <line x1="1345.938" y1="432" x2="1289.938" y2="488"/>
    <line x1="1345.938" y1="432" x2="1345.938" y2="488"/>
    <line x1="1345.938" y1="432" x2="1401.938" y2="488"/>
    <line x1="1345.938" y1="432" x2="1457.938" y2="488"/>
    <line x1="1457.938" y1="488" x2="1006" y2="544"/>
    <line x1="1457.938" y1="488" x2="1202" y2="544"/>
    <line x1="1457.938" y1="488" x2="1456.625" y2="544"/>
    <line x1="1457.938" y1="488" x2="1683.25" y2="544"/>
    <line x1="1457.938" y1="488" x2="1909.875" y2="544"/>
    <line x1="1006" y1="544" x2="866" y2="600"/>
    <line x1="1006" y1="544" x2="922" y2="600"/>
    <line x1="1006" y1="544" x2="1006" y2="600"/>
    <line x1="1006" y1="544" x2="1090" y2="600"/>
    <line x1="1006" y1="544" x2="1146" y2="600"/>
    <line x1="922" y1="600" x2="894" y2="656"/>
    <line x1="922" y1="600" x2="950" y2="656"/>
    <line x1="950" y1="656" x2="922" y2="712"/>
    <line x1="950" y1="656" x2="978" y2="712"/>
    <line x1="1090" y1="600" x2="1062" y2="656"/>
    <line x1="1090" y1="600" x2="1118" y2="656"/>
    <line x1="1062" y1="656" x2="1034" y2="712"/>
    <line x1="1062" y1="656" x2="1090" y2="712"/>
    <line x1="1202" y1="544" x2="1202" y2="600"/>
    <line x1="1202" y1="600" x2="1202" y2="656"/>
    <line x1="1202" y1="656" x2="1202" y2="712"/>
    <line x1="1202" y1="712" x2="872.125" y2="768"/>
    <line x1="1202" y1="712" x2="1182.313" y2="768"/>
    <line x1="1202" y1="712" x2="1317.5" y2="768"/>
    <line x1="1202" y1="712" x2="1424.688" y2="768"/>
    <line x1="1202" y1="712" x2="1531.875" y2="768"/>
    <line x1="872.125" y1="768" x2="760.125" y2="824"/>
    <line x1="872.125" y1="768" x2="816.125" y2="824"/>
    <line x1="872.125" y1="768" x2="872.125" y2="824"/>
    <line x1="872.125" y1="768" x2="928.125" y2="824"/>
    <line x1="872.125" y1="768" x2="984.125" y2="824"/>
    <line x1="816.125" y1="824" x2="557.125" y2="880"/>
    <line x1="816.125" y1="824" x2="753.125" y2="880"/>
    <line x1="816.125" y1="824" x2="879.125" y2="880"/>
    <line x1="816.125" y1="824" x2="977.125" y2="880"/>
    <line x1="816.125" y1="824" x2="1075.125" y2="880"/>
    <line x1="557.125" y1="880" x2="417.125" y2="936"/>
    <line x1="557.125" y1="880" x2="473.125" y2="936"/>
    <line x1="557.125" y1="880" x2="557.125" y2="936"/>
    <line x1="557.125" y1="880" x2="641.125" y2="936"/>
    <line x1="557.125" y1="880" x2="697.125" y2="936"/>
    <line x1="473.125" y1="936" x2="445.125" y2="992"/>
    <line x1="473.125" y1="936" x2="501.125" y2="992"/>
    <line x1="501.125" y1="992" x2="473.125" y2="1048"/>
    <line x1="501.125" y1="992" x2="529.125" y2="1048"/>
    <line x1="641.125" y1="936" x2="613.125" y2="992"/>
    <line x1="641.125" y1="936" x2="669.125" y2="992"/>
    <line x1="613.125" y1="992" x2="585.125" y2="1048"/>
    <line x1="613.125" y1="992" x2="641.125" y2="1048"/>
    <line x1="753.125" y1="880" x2="753.125" y2="936"/>
    <line x1="753.125" y1="936" x2="753.125" y2="992"/>
    <line x1="753.125" y1="992" x2="753.125" y2="1048"/>
    <line x1="753.125" y1="1048" x2="571.125" y2="1104"/>
    <line x1="753.125" y1="1048" x2="739.125" y2="1104"/>
    <line x1="753.125" y1="1048" x2="823.125" y2="1104"/>
    <line x1="753.125" y1="1048" x2="879.125" y2="1104"/>
    <line x1="753.125" y1="1048" x2="935.125" y2="1104"/>
    <line x1="571.125" y1="1104" x2="459.125" y2="1160"/>
    <line x1="571.125" y1="1104" x2="515.125" y2="1160"/>
    <line x1="571.125" y1="1104" x2="571.125" y2="1160"/>
    <line x1="571.125" y1="1104" x2="627.125" y2="1160"/>
    <line x1="571.125" y1="1104" x2="683.125" y2="1160"/>
    <line x1="739.125" y1="1104" x2="739.125" y2="1160"/>
    <line x1="739.125" y1="1160" x2="739.125" y2="1216"/>
    <line x1="739.125" y1="1216" x2="739.125" y2="1272"/>
    <line x1="739.125" y1="1272" x2="739.125" y2="1328"/>
    <line x1="823.125" y1="1104" x2="795.125" y2="1160"/>
    <line x1="823.125" y1="1104" x2="851.125" y2="1160"/>
    <line x1="851.125" y1="1160" x2="823.125" y2="1216"/>
    <line x1="851.125" y1="1160" x2="879.125" y2="1216"/>
    <line x1="935.125" y1="1104" x2="935.125" y2="1160"/>
    <line x1="935.125" y1="1160" x2="935.125" y2="1216"/>
    <line x1="935.125" y1="1216" x2="823.125" y2="1272"/>
    <line x1="935.125" y1="1216" x2="879.125" y2="1272"/>
    <line x1="935.125" y1="1216" x2="935.125" y2="1272"/>
    <line x1="935.125" y1="1216" x2="991.125" y2="1272"/>
    <line x1="935.125" y1="1216" x2="1047.125" y2="1272"/>
    <line x1="879.125" y1="880" x2="851.125" y2="936"/>
    <line x1="879.125" y1="880" x2="907.125" y2="936"/>
    <line x1="907.125" y1="936" x2="879.125" y2="992"/>
    <line x1="907.125" y1="936" x2="935.125" y2="992"/>
    <line x1="1075.125" y1="880" x2="1075.125" y2="936"/>
    <line x1="1075.125" y1="936" x2="1075.125" y2="992"/>
    <line x1="1075.125" y1="992" x2="963.125" y2="1048"/>
    <line x1="1075.125" y1="992" x2="1019.125" y2="1048"/>
    <line x1="1075.125" y1="992" x2="1075.125" y2="1048"/>
    <line x1="1075.125" y1="992" x2="1131.125" y2="1048"/>
    <line x1="1075.125" y1="992" x2="1187.125" y2="1048"/>
    <line x1="1075.125" y1="1048" x2="1019.125" y2="1104"/>
    <line x1="1075.125" y1="1048" x2="1131.125" y2="1104"/>
    <line x1="1019.125" y1="1104" x2="991.125" y2="1160"/>
    <line x1="1019.125" y1="1104" x2="1047.125" y2="1160"/>
    <line x1="1131.125" y1="1104" x2="1103.125" y2="1160"/>
    <line x1="1131.125" y1="1104" x2="1159.125" y2="1160"/>
    <line x1="1182.313" y1="768" x2="1182.313" y2="824"/>
    <line x1="1182.313" y1="824" x2="1182.313" y2="880"/>
    <line x1="1182.313" y1="880" x2="1182.313" y2="936"/>
    <line x1="1182.313" y1="936" x2="1182.313" y2="992"/>
    <line x1="1317.5" y1="768" x2="1289.5" y2="824"/>
    <line x1="1317.5" y1="768" x2="1345.5" y2="824"/>
    <line x1="1345.5" y1="824" x2="1317.5" y2="880"/>
    <line x1="1345.5" y1="824" x2="1373.5" y2="880"/>
    <line x1="1531.875" y1="768" x2="1531.875" y2="824"/>
    <line x1="1531.875" y1="824" x2="1531.875" y2="880"/>
    <line x1="1531.875" y1="880" x2="1419.875" y2="936"/>
    <line x1="1531.875" y1="880" x2="1475.875" y2="936"/>
    <line x1="1531.875" y1="880" x2="1531.875" y2="936"/>
    <line x1="1531.875" y1="880" x2="1587.875" y2="936"/>
    <line x1="1531.875" y1="880" x2="1643.875" y2="936"/>
    <line x1="1643.875" y1="936" x2="1643.875" y2="992"/>
    <line x1="1643.875" y1="992" x2="1643.875" y2="1048"/>
    <line x1="1643.875" y1="1048" x2="1643.875" y2="1104"/>
    <line x1="1643.875" y1="1104" x2="1643.875" y2="1160"/>
    <line x1="1643.875" y1="1160" x2="1243.125" y2="1216"/>
    <line x1="1643.875" y1="1160" x2="1439.125" y2="1216"/>
    <line x1="1643.875" y1="1160" x2="1659.625" y2="1216"/>
    <line x1="1643.875" y1="1160" x2="1852.125" y2="1216"/>
    <line x1="1643.875" y1="1160" x2="2044.625" y2="1216"/>
    <line x1="1243.125" y1="1216" x2="1103.125" y2="1272"/>
    <line x1="1243.125" y1="1216" x2="1159.125" y2="1272"/>
    <line x1="1243.125" y1="1216" x2="1243.125" y2="1272"/>
    <line x1="1243.125" y1="1216" x2="1327.125" y2="1272"/>
    <line x1="1243.125" y1="1216" x2="1383.125" y2="1272"/>
    <line x1="1159.125" y1="1272" x2="1131.125" y2="1328"/>
    <line x1="1159.125" y1="1272" x2="1187.125" y2="1328"/>
    <line x1="1187.125" y1="1328" x2="1159.125" y2="1384"/>
    <line x1="1187.125" y1="1328" x2="1215.125" y2="1384"/>
    <line x1="1327.125" y1="1272" x2="1299.125" y2="1328"/>
    <line x1="1327.125" y1="1272" x2="1355.125" y2="1328"/>
    <line x1="1299.125" y1="1328" x2="1271.125" y2="1384"/>
    <line x1="1299.125" y1="1328" x2="1327.125" y2="1384"/>
    <line x1="1439.125" y1="1216" x2="1439.125" y2="1272"/>
    <line x1="1439.125" y1="1272" x2="1439.125" y2="1328"/>
    <line x1="1439.125" y1="1328" x2="1439.125" y2="1384"/>
    <line x1="1439.125" y1="1384" x2="1211.625" y2="1440"/>
    <line x1="1439.125" y1="1384" x2="1470.625" y2="1440"/>
    <line x1="1439.125" y1="1384" x2="1554.625" y2="1440"/>
    <line x1="1439.125" y1="1384" x2="1610.625" y2="1440"/>
    <line x1="1439.125" y1="1384" x2="1666.625" y2="1440"/>
    <line x1="1211.625" y1="1440" x2="1099.625" y2="1496"/>
    <line x1="1211.625" y1="1440" x2="1155.625" y2="1496"/>
    <line x1="1211.625" y1="1440" x2="1211.625" y2="1496"/>
    <line x1="1211.625" y1="1440" x2="1267.625" y2="1496"/>
    <line x1="1211.625" y1="1440" x2="1323.625" y2="1496"/>
    <line x1="1155.625" y1="1496" x2="896.625" y2="1552"/>
    <line x1="1155.625" y1="1496" x2="1092.625" y2="1552"/>
    <line x1="1155.625" y1="1496" x2="1218.625" y2="1552"/>
    <line x1="1155.625" y1="1496" x2="1316.625" y2="1552"/>
    <line x1="1155.625" y1="1496" x2="1414.625" y2="1552"/>
    <line x1="896.625" y1="1552" x2="756.625" y2="1608"/>
    <line x1="896.625" y1="1552" x2="812.625" y2="1608"/>
    <line x1="896.625" y1="1552" x2="896.625" y2="1608"/>
    <line x1="896.625" y1="1552" x2="980.625" y2="1608"/>
    <line x1="896.625" y1="1552" x2="1036.625" y2="1608"/>
    <line x1="812.625" y1="1608" x2="784.625" y2="1664"/>
    <line x1="812.625" y1="1608" x2="840.625" y2="1664"/>
    <line x1="840.625" y1="1664" x2="812.625" y2="1720"/>
    <line x1="840.625" y1="1664" x2="868.625" y2="1720"/>
    <line x1="980.625" y1="1608" x2="952.625" y2="1664"/>
    <line x1="980.625" y1="1608" x2="1008.625" y2="1664"/>
    <line x1="952.625" y1="1664" x2="924.625" y2="1720"/>
    <line x1="952.625" y1="1664" x2="980.625" y2="1720"/>
    <line x1="1092.625" y1="1552" x2="1092.625" y2="1608"/>
    <line x1="1092.625" y1="1608" x2="1092.625" y2="1664"/>
    <line x1="1092.625" y1="1664" x2="1092.625" y2="1720"/>
    <line x1="1092.625" y1="1720" x2="910.625" y2="1776"/>
    <line x1="1092.625" y1="1720" x2="1078.625" y2="1776"/>
    <line x1="1092.625" y1="1720" x2="1162.625" y2="1776"/>
    <line x1="1092.625" y1="1720" x2="1218.625" y2="1776"/>
    <line x1="1092.625" y1="1720" x2="1274.625" y2="1776"/>
    <line x1="910.625" y1="1776" x2="798.625" y2="1832"/>
    <line x1="910.625" y1="1776" x2="854.625" y2="1832"/>
    <line x1="910.625" y1="1776" x2="910.625" y2="1832"/>
    <line x1="910.625" y1="1776" x2="966.625" y2="1832"/>
    <line x1="910.625" y1="1776" x2="1022.625" y2="1832"/>
    <line x1="1078.625" y1="1776" x2="1078.625" y2="1832"/>
    <line x1="1078.625" y1="1832" x2="1078.625" y2="1888"/>
    <line x1="1078.625" y1="1888" x2="1078.625" y2="1944"/>
    <line x1="1078.625" y1="1944" x2="1078.625" y2="2000"/>
    <line x1="1162.625" y1="1776" x2="1134.625" y2="1832"/>
    <line x1="1162.625" y1="1776" x2="1190.625" y2="1832"/>
    <line x1="1190.625" y1="1832" x2="1162.625" y2="1888"/>
    <line x1="1190.625" y1="1832" x2="1218.625" y2="1888"/>
    <line x1="1274.625" y1="1776" x2="1274.625" y2="1832"/>
    <line x1="1274.625" y1="1832" x2="1274.625" y2="1888"/>
    <line x1="1274.625" y1="1888" x2="1162.625" y2="1944"/>
    <line x1="1274.625" y1="1888" x2="1218.625" y2="1944"/>
    <line x1="1274.625" y1="1888" x2="1274.625" y2="1944"/>
    <line x1="1274.625" y1="1888" x2="1330.625" y2="1944"/>
    <line x1="1274.625" y1="1888" x2="1386.625" y2="1944"/>
    <line x1="1218.625" y1="1552" x2="1190.625" y2="1608"/>
    <line x1="1218.625" y1="1552" x2="1246.625" y2="1608"/>
    <line x1="1246.625" y1="1608" x2="1218.625" y2="1664"/>
    <line x1="1246.625" y1="1608" x2="1274.625" y2="1664"/>
    <line x1="1414.625" y1="1552" x2="1414.625" y2="1608"/>
    <line x1="1414.625" y1="1608" x2="1414.625" y2="1664"/>
    <line x1="1414.625" y1="1664" x2="1302.625" y2="1720"/>
    <line x1="1414.625" y1="1664" x2="1358.625" y2="1720"/>
    <line x1="1414.625" y1="1664" x2="1414.625" y2="1720"/>
    <line x1="1414.625" y1="1664" x2="1470.625" y2="1720"/>
    <line x1="1414.625" y1="1664" x2="1526.625" y2="1720"/>
    <line x1="1414.625" y1="1720" x2="1358.625" y2="1776"/>
    <line x1="1414.625" y1="1720" x2="1470.625" y2="1776"/>
    <line x1="1358.625" y1="1776" x2="1330.625" y2="1832"/>
    <line x1="1358.625" y1="1776" x2="1386.625" y2="1832"/>
    <line x1="1470.625" y1="1776" x2="1442.625" y2="1832"/>
    <line x1="1470.625" y1="1776" x2="1498.625" y2="1832"/>
    <line x1="1470.625" y1="1440" x2="1470.625" y2="1496"/>
    <line x1="1470.625" y1="1496" x2="1470.625" y2="1552"/>
    <line x1="1470.625" y1="1552" x2="1470.625" y2="1608"/>
    <line x1="1470.625" y1="1608" x2="1470.625" y2="1664"/>
    <line x1="1554.625" y1="1440" x2="1526.625" y2="1496"/>
    <line x1="1554.625" y1="1440" x2="1582.625" y2="1496"/>
    <line x1="1582.625" y1="1496" x2="1554.625" y2="1552"/>
    <line x1="1582.625" y1="1496" x2="1610.625" y2="1552"/>
    <line x1="1666.625" y1="1440" x2="1666.625" y2="1496"/>
    <line x1="1666.625" y1="1496" x2="1666.625" y2="1552"/>
    <line x1="1666.625" y1="1552" x2="1554.625" y2="1608"/>
    <line x1="1666.625" y1="1552" x2="1610.625" y2="1608"/>
    <line x1="1666.625" y1="1552" x2="1666.625" y2="1608"/>
    <line x1="1666.625" y1="1552" x2="1722.625" y2="1608"/>
    <line x1="1666.625" y1="1552" x2="1778.625" y2="1608"/>
    <line x1="1659.625" y1="1216" x2="1631.625" y2="1272"/>
    <line x1="1659.625" y1="1216" x2="1687.625" y2="1272"/>
    <line x1="1687.625" y1="1272" x2="1659.625" y2="1328"/>
    <line x1="1687.625" y1="1272" x2="1715.625" y2="1328"/>
    <line x1="2044.625" y1="1216" x2="2044.625" y2="1272"/>
    <line x1="2044.625" y1="1272" x2="2044.625" y2="1328"/>
    <line x1="2044.625" y1="1328" x2="1932.625" y2="1384"/>
    <line x1="2044.625" y1="1328" x2="1988.625" y2="1384"/>
    <line x1="2044.625" y1="1328" x2="2044.625" y2="1384"/>
    <line x1="2044.625" y1="1328" x2="2100.625" y2="1384"/>
    <line x1="2044.625" y1="1328" x2="2156.625" y2="1384"/>
    <line x1="2044.625" y1="1384" x2="1988.625" y2="1440"/>
    <line x1="2044.625" y1="1384" x2="2100.625" y2="1440"/>
    <line x1="1988.625" y1="1440" x2="1960.625" y2="1496"/>
    <line x1="1988.625" y1="1440" x2="2016.625" y2="1496"/>
    <line x1="2100.625" y1="1440" x2="2072.625" y2="1496"/>
    <line x1="2100.625" y1="1440" x2="2128.625" y2="1496"/>
    <line x1="2128.625" y1="1496" x2="1946.625" y2="1552"/>
    <line x1="2128.625" y1="1496" x2="2114.625" y2="1552"/>
    <line x1="2128.625" y1="1496" x2="2198.625" y2="1552"/>
    <line x1="2128.625" y1="1496" x2="2254.625" y2="1552"/>
    <line x1="2128.625" y1="1496" x2="2310.625" y2="1552"/>
    <line x1="1946.625" y1="1552" x2="1834.625" y2="1608"/>
    <line x1="1946.625" y1="1552" x2="1890.625" y2="1608"/>
    <line x1="1946.625" y1="1552" x2="1946.625" y2="1608"/>
    <line x1="1946.625" y1="1552" x2="2002.625" y2="1608"/>
    <line x1="1946.625" y1="1552" x2="2058.625" y2="1608"/>
    <line x1="2114.625" y1="1552" x2="2114.625" y2="1608"/>
    <line x1="2114.625" y1="1608" x2="2114.625" y2="1664"/>
    <line x1="2114.625" y1="1664" x2="2114.625" y2="1720"/>
    <line x1="2114.625" y1="1720" x2="2114.625" y2="1776"/>
    <line x1="2198.625" y1="1552" x2="2170.625" y2="1608"/>
    <line x1="2198.625" y1="1552" x2="2226.625" y2="1608"/>
    <line x1="2226.625" y1="1608" x2="2198.625" y2="1664"/>
    <line x1="2226.625" y1="1608" x2="2254.625" y2="1664"/>
    <line x1="2310.625" y1="1552" x2="2310.625" y2="1608"/>
    <line x1="2310.625" y1="1608" x2="2310.625" y2="1664"/>
    <line x1="2310.625" y1="1664" x2="2198.625" y2="1720"/>
    <line x1="2310.625" y1="1664" x2="2254.625" y2="1720"/>
    <line x1="2310.625" y1="1664" x2="2310.625" y2="1720"/>
    <line x1="2310.625" y1="1664" x2="2366.625" y2="1720"/>
    <line x1="2310.625" y1="1664" x2="2422.625" y2="1720"/>
    <line x1="1456.625" y1="544" x2="1428.625" y2="600"/>
    <line x1="1456.625" y1="544" x2="1484.625" y2="600"/>
    <line x1="1484.625" y1="600" x2="1456.625" y2="656"/>
    <line x1="1484.625" y1="600" x2="1512.625" y2="656"/>
    <line x1="1909.875" y1="544" x2="1909.875" y2="600"/>
    <line x1="1909.875" y1="600" x2="1909.875" y2="656"/>
    <line x1="1909.875" y1="656" x2="1797.875" y2="712"/>
    <line x1="1909.875" y1="656" x2="1853.875" y2="712"/>
    <line x1="1909.875" y1="656" x2="1909.875" y2="712"/>
    <line x1="1909.875" y1="656" x2="1965.875" y2="712"/>
    <line x1="1909.875" y1="656" x2="2021.875" y2="712"/>
    <line x1="1909.875" y1="712" x2="1853.875" y2="768"/>
    <line x1="1909.875" y1="712" x2="1965.875" y2="768"/>
    <line x1="1853.875" y1="768" x2="1825.875" y2="824"/>
    <line x1="1853.875" y1="768" x2="1881.875" y2="824"/>
    <line x1="1965.875" y1="768" x2="1937.875" y2="824"/>
    <line x1="1965.875" y1="768" x2="1993.875" y2="824"/>
    <line x1="1993.875" y1="824" x2="1811.875" y2="880"/>
    <line x1="1993.875" y1="824" x2="1979.875" y2="880"/>
    <line x1="1993.875" y1="824" x2="2063.875" y2="880"/>
    <line x1="1993.875" y1="824" x2="2119.875" y2="880"/>
    <line x1="1993.875" y1="824" x2="2175.875" y2="880"/>
    <line x1="1811.875" y1="880" x2="1699.875" y2="936"/>
    <line x1="1811.875" y1="880" x2="1755.875" y2="936"/>
    <line x1="1811.875" y1="880" x2="1811.875" y2="936"/>
    <line x1="1811.875" y1="880" x2="1867.875" y2="936"/>
    <line x1="1811.875" y1="880" x2="1923.875" y2="936"/>
    <line x1="1979.875" y1="880" x2="1979.875" y2="936"/>
    <line x1="1979.875" y1="936" x2="1979.875" y2="992"/>
    <line x1="1979.875" y1="992" x2="1979.875" y2="1048"/>
    <line x1="1979.875" y1="1048" x2="1979.875" y2="1104"/>
    <line x1="2063.875" y1="880" x2="2035.875" y2="936"/>
    <line x1="2063.875" y1="880" x2="2091.875" y2="936"/>
    <line x1="2091.875" y1="936" x2="2063.875" y2="992"/>
    <line x1="2091.875" y1="936" x2="2119.875" y2="992"/>
    <line x1="2175.875" y1="880" x2="2175.875" y2="936"/>
    <line x1="2175.875" y1="936" x2="2175.875" y2="992"/>
    <line x1="2175.875" y1="992" x2="2063.875" y2="1048"/>
    <line x1="2175.875" y1="992" x2="2119.875" y2="1048"/>
    <line x1="2175.875" y1="992" x2="2175.875" y2="1048"/>
    <line x1="2175.875" y1="992" x2="2231.875" y2="1048"/>
    <line x1="2175.875" y1="992" x2="2287.875" y2="1048"/>
    <line x1="1264.271" y1="96" x2="1236.271" y2="152"/>
    <line x1="1264.271" y1="96" x2="1292.271" y2="152"/>
    <line x1="1292.271" y1="152" x2="1264.271" y2="208"/>
    <line x1="1292.271" y1="152" x2="1320.271" y2="208"/>
    <line x1="1895.875" y1="96" x2="1895.875" y2="152"/>
    <line x1="1895.875" y1="152" x2="1895.875" y2="208"/>
    <line x1="1895.875" y1="208" x2="1783.875" y2="264"/>
    <line x1="1895.875" y1="208" x2="1839.875" y2="264"/>
    <line x1="1895.875" y1="208" x2="1895.875" y2="264"/>
    <line x1="1895.875" y1="208" x2="1951.875" y2="264"/>
    <line x1="1895.875" y1="208" x2="2007.875" y2="264"/>
    <line x1="1895.875" y1="264" x2="1839.875" y2="320"/>
    <line x1="1895.875" y1="264" x2="1951.875" y2="320"/>
    <line x1="1839.875" y1="320" x2="1811.875" y2="376"/>
    <line x1="1839.875" y1="320" x2="1867.875" y2="376"/>
    <line x1="1951.875" y1="320" x2="1923.875" y2="376"/>
    <line x1="1951.875" y1="320" x2="1979.875" y2="376"/>
    <line x1="1979.875" y1="376" x2="1797.875" y2="432"/>
    <line x1="1979.875" y1="376" x2="1965.875" y2="432"/>
    <line x1="1979.875" y1="376" x2="2049.875" y2="432"/>
    <line x1="1979.875" y1="376" x2="2105.875" y2="432"/>
    <line x1="1979.875" y1="376" x2="2161.875" y2="432"/>
    <line x1="1797.875" y1="432" x2="1685.875" y2="488"/>
    <line x1="1797.875" y1="432" x2="1741.875" y2="488"/>
    <line x1="1797.875" y1="432" x2="1797.875" y2="488"/>
    <line x1="1797.875" y1="432" x2="1853.875" y2="488"/>
    <line x1="1797.875" y1="432" x2="1909.875" y2="488"/>
    <line x1="1965.875" y1="432" x2="1965.875" y2="488"/>
    <line x1="1965.875" y1="488" x2="1965.875" y2="544"/>
    <line x1="1965.875" y1="544" x2="1965.875" y2="600"/>
    <line x1="1965.875" y1="600" x2="1965.875" y2="656"/>
    <line x1="2049.875" y1="432" x2="2021.875" y2="488"/>
    <line x1="2049.875" y1="432" x2="2077.875" y2="488"/>
    <line x1="2077.875" y1="488" x2="2049.875" y2="544"/>
    <line x1="2077.875" y1="488" x2="2105.875" y2="544"/>
    <line x1="2161.875" y1="432" x2="2161.875" y2="488"/>
    <line x1="2161.875" y1="488" x2="2161.875" y2="544"/>
    <line x1="2161.875" y1="544" x2="2049.875" y2="600"/>
    <line x1="2161.875" y1="544" x2="2105.875" y2="600"/>
    <line x1="2161.875" y1="544" x2="2161.875" y2="600"/>
    <line x1="2161.875" y1="544" x2="2217.875" y2="600"/>
    <line x1="2161.875" y1="544" x2="2273.875" y2="600"/>
  </g>
  <g fill="#e2e8f0" stroke="#0f172a" stroke-width="2">
    <circle cx="1310.172" cy="40" r="18"/>
    <circle cx="724.469" cy="96" r="18"/>
    <circle cx="584.469" cy="152" r="18"/>
    <circle cx="640.469" cy="152" r="18"/>
    <circle cx="612.469" cy="208" r="18"/>
    <circle cx="668.469" cy="208" r="18"/>
    <circle cx="640.469" cy="264" r="18"/>
    <circle cx="696.469" cy="264" r="18"/>
    <circle cx="724.469" cy="152" r="18"/>
    <circle cx="808.469" cy="152" r="18"/>
    <circle cx="780.469" cy="208" r="18"/>
    <circle cx="752.469" cy="264" r="18"/>
    <circle cx="808.469" cy="264" r="18"/>
    <circle cx="836.469" cy="208" r="18"/>
    <circle cx="864.469" cy="152" r="18"/>
    <circle cx="920.469" cy="96" r="18"/>
    <circle cx="920.469" cy="152" r="18"/>
    <circle cx="920.469" cy="208" r="18"/>
    <circle cx="920.469" cy="264" r="18"/>
    <circle cx="495" cy="320" r="18"/>
    <circle cx="383" cy="376" r="18"/>
    <circle cx="439" cy="376" r="18"/>
    <circle cx="180" cy="432" r="18"/>
    <circle cx="40" cy="488" r="18"/>
    <circle cx="96" cy="488" r="18"/>
    <circle cx="68" cy="544" r="18"/>
    <circle cx="124" cy="544" r="18"/>
    <circle cx="96" cy="600" r="18"/>
    <circle cx="152" cy="600" r="18"/>
    <circle cx="180" cy="488" r="18"/>
    <circle cx="264" cy="488" r="18"/>
    <circle cx="236" cy="544" r="18"/>
    <circle cx="208" cy="600" r="18"/>
    <circle cx="264" cy="600" r="18"/>
    <circle cx="292" cy="544" r="18"/>
    <circle cx="320" cy="488" r="18"/>
    <circle cx="376" cy="432" r="18"/>
    <circle cx="376" cy="488" r="18"/>
    <circle cx="376" cy="544" r="18"/>
    <circle cx="376" cy="600" r="18"/>
    <circle cx="194" cy="656" r="18"/>
    <circle cx="82" cy="712" r="18"/>
    <circle cx="138" cy="712" r="18"/>
    <circle cx="194" cy="712" r="18"/>
    <circle cx="250" cy="712" r="18"/>
    <circle cx="306" cy="712" r="18"/>
    <circle cx="362" cy="656" r="18"/>
    <circle cx="362" cy="712" r="18"/>
    <circle cx="362" cy="768" r="18"/>
    <circle cx="362" cy="824" r="18"/>
    <circle cx="362" cy="880" r="18"/>
    <circle cx="446" cy="656" r="18"/>
    <circle cx="418" cy="712" r="18"/>
    <circle cx="474" cy="712" r="18"/>
    <circle cx="446" cy="768" r="18"/>
    <circle cx="502" cy="768" r="18"/>
    <circle cx="502" cy="656" r="18"/>
    <circle cx="558" cy="656" r="18"/>
    <circle cx="558" cy="712" r="18"/>
    <circle cx="558" cy="768" r="18"/>
    <circle cx="446" cy="824" r="18"/>
    <circle cx="502" cy="824" r="18"/>
    <circle cx="558" cy="824" r="18"/>
    <circle cx="614" cy="824" r="18"/>
    <circle cx="670" cy="824" r="18"/>
    <circle cx="502" cy="432" r="18"/>
    <circle cx="474" cy="488" r="18"/>
    <circle cx="530" cy="488" r="18"/>
    <circle cx="502" cy="544" r="18"/>
    <circle cx="558" cy="544" r="18"/>
    <circle cx="600" cy="432" r="18"/>
    <circle cx="698" cy="432" r="18"/>
    <circle cx="698" cy="488" r="18"/>
    <circle cx="698" cy="544" r="18"/>
    <circle cx="586" cy="600" r="18"/>
    <circle cx="642" cy="600" r="18"/>
    <circle cx="698" cy="600" r="18"/>
    <circle cx="642" cy="656" r="18"/>
    <circle cx="614" cy="712" r="18"/>
    <circle cx="670" cy="712" r="18"/>
    <circle cx="754" cy="656" r="18"/>
    <circle cx="726" cy="712" r="18"/>
    <circle cx="782" cy="712" r="18"/>
    <circle cx="754" cy="600" r="18"/>
    <circle cx="810" cy="600" r="18"/>
    <circle cx="495" cy="376" r="18"/>
    <circle cx="551" cy="376" r="18"/>
    <circle cx="607" cy="376" r="18"/>
    <circle cx="803" cy="320" r="18"/>
    <circle cx="803" cy="376" r="18"/>
    <circle cx="803" cy="432" r="18"/>
    <circle cx="803" cy="488" r="18"/>
    <circle cx="803" cy="544" r="18"/>
    <circle cx="1002.646" cy="320" r="18"/>
    <circle cx="974.646" cy="376" r="18"/>
    <circle cx="1030.646" cy="376" r="18"/>
    <circle cx="1002.646" cy="432" r="18"/>
    <circle cx="1058.646" cy="432" r="18"/>
    <circle cx="1174.292" cy="320" r="18"/>
    <circle cx="1345.938" cy="320" r="18"/>
    <circle cx="1345.938" cy="376" r="18"/>
    <circle cx="1345.938" cy="432" r="18"/>
    <circle cx="1233.938" cy="488" r="18"/>
    <circle cx="1289.938" cy="488" r="18"/>
    <circle cx="1345.938" cy="488" r="18"/>
    <circle cx="1401.938" cy="488" r="18"/>
    <circle cx="1457.938" cy="488" r="18"/>
    <circle cx="1006" cy="544" r="18"/>
    <circle cx="866" cy="600" r="18"/>
    <circle cx="922" cy="600" r="18"/>
    <circle cx="894" cy="656" r="18"/>
    <circle cx="950" cy="656" r="18"/>
    <circle cx="922" cy="712" r="18"/>
    <circle cx="978" cy="712" r="18"/>
    <circle cx="1006" cy="600" r="18"/>
    <circle cx="1090" cy="600" r="18"/>
    <circle cx="1062" cy="656" r="18"/>
    <circle cx="1034" cy="712" r="18"/>
    <circle cx="1090" cy="712" r="18"/>
    <circle cx="1118" cy="656" r="18"/>
    <circle cx="1146" cy="600" r="18"/>
    <circle cx="1202" cy="544" r="18"/>
    <circle cx="1202" cy="600" r="18"/>
    <circle cx="1202" cy="656" r="18"/>
    <circle cx="1202" cy="712" r="18"/>
    <circle cx="872.125" cy="768" r="18"/>
    <circle cx="760.125" cy="824" r="18"/>
    <circle cx="816.125" cy="824" r="18"/>
    <circle cx="557.125" cy="880" r="18"/>
    <circle cx="417.125" cy="936" r="18"/>
    <circle cx="473.125" cy="936" r="18"/>
    <circle cx="445.125" cy="992" r="18"/>
    <circle cx="501.125" cy="992" r="18"/>
    <circle cx="473.125" cy="1048" r="18"/>
    <circle cx="529.125" cy="1048" r="18"/>
    <circle cx="557.125" cy="936" r="18"/>
    <circle cx="641.125" cy="936" r="18"/>
    <circle cx="613.125" cy="992" r="18"/>
    <circle cx="585.125" cy="1048" r="18"/>
    <circle cx="641.125" cy="1048" r="18"/>
    <circle cx="669.125" cy="992" r="18"/>
    <circle cx="697.125" cy="936" r="18"/>
    <circle cx="753.125" cy="880" r="18"/>
    <circle cx="753.125" cy="936" r="18"/>
    <circle cx="753.125" cy="992" r="18"/>
    <circle cx="753.125" cy="1048" r="18"/>
    <circle cx="571.125" cy="1104" r="18"/>
    <circle cx="459.125" cy="1160" r="18"/>
    <circle cx="515.125" cy="1160" r="18"/>
    <circle cx="571.125" cy="1160" r="18"/>
    <circle cx="627.125" cy="1160" r="18"/>
    <circle cx="683.125" cy="1160" r="18"/>
    <circle cx="739.125" cy="1104" r="18"/>
    <circle cx="739.125" cy="1160" r="18"/>
    <circle cx="739.125" cy="1216" r="18"/>
    <circle cx="739.125" cy="1272" r="18"/>
    <circle cx="739.125" cy="1328" r="18"/>
    <circle cx="823.125" cy="1104" r="18"/>
    <circle cx="795.125" cy="1160" r="18"/>
    <circle cx="851.125" cy="1160" r="18"/>
    <circle cx="823.125" cy="1216" r="18"/>
    <circle cx="879.125" cy="1216" r="18"/>
    <circle cx="879.125" cy="1104" r="18"/>
    <circle cx="935.125" cy="1104" r="18"/>
    <circle cx="935.125" cy="1160" r="18"/>
    <circle cx="935.125" cy="1216" r="18"/>
    <circle cx="823.125" cy="1272" r="18"/>
    <circle cx="879.125" cy="1272" r="18"/>
    <circle cx="935.125" cy="1272" r="18"/>
    <circle cx="991.125" cy="1272" r="18"/>
    <circle cx="1047.125" cy="1272" r="18"/>
    <circle cx="879.125" cy="880" r="18"/>
    <circle cx="851.125" cy="936" r="18"/>
    <circle cx="907.125" cy="936" r="18"/>
    <circle cx="879.125" cy="992" r="18"/>
    <circle cx="935.125" cy="992" r="18"/>
    <circle cx="977.125" cy="880" r="18"/>
    <circle cx="1075.125" cy="880" r="18"/>
    <circle cx="1075.125" cy="936" r="18"/>
    <circle cx="1075.125" cy="992" r="18"/>
    <circle cx="963.125" cy="1048" r="18"/>
    <circle cx="1019.125" cy="1048" r="18"/>
    <circle cx="1075.125" cy="1048" r="18"/>
    <circle cx="1019.125" cy="1104" r="18"/>
    <circle cx="991.125" cy="1160" r="18"/>
    <circle cx="1047.125" cy="1160" r="18"/>
    <circle cx="1131.125" cy="1104" r="18"/>
    <circle cx="1103.125" cy="1160" r="18"/>
    <circle cx="1159.125" cy="1160" r="18"/>
    <circle cx="1131.125" cy="1048" r="18"/>
    <circle cx="1187.125" cy="1048" r="18"/>
    <circle cx="872.125" cy="824" r="18"/>
    <circle cx="928.125" cy="824" r="18"/>
    <circle cx="984.125" cy="824" r="18"/>
    <circle cx="1182.313" cy="768" r="18"/>
    <circle cx="1182.313" cy="824" r="18"/>
    <circle cx="1182.313" cy="880" r="18"/>
    <circle cx="1182.313" cy="936" r="18"/>
    <circle cx="1182.313" cy="992" r="18"/>
    <circle cx="1317.5" cy="768" r="18"/>
    <circle cx="1289.5" cy="824" r="18"/>
    <circle cx="1345.5" cy="824" r="18"/>
    <circle cx="1317.5" cy="880" r="18"/>
    <circle cx="1373.5" cy="880" r="18"/>
    <circle cx="1424.688" cy="768" r="18"/>
    <circle cx="1531.875" cy="768" r="18"/>
    <circle cx="1531.875" cy="824" r="18"/>
    <circle cx="1531.875" cy="880" r="18"/>
    <circle cx="1419.875" cy="936" r="18"/>
    <circle cx="1475.875" cy="936" r="18"/>
    <circle cx="1531.875" cy="936" r="18"/>
    <circle cx="1587.875" cy="936" r="18"/>
    <circle cx="1643.875" cy="936" r="18"/>
    <circle cx="1643.875" cy="992" r="18"/>
    <circle cx="1643.875" cy="1048" r="18"/>
    <circle cx="1643.875" cy="1104" r="18"/>
    <circle cx="1643.875" cy="1160" r="18"/>
    <circle cx="1243.125" cy="1216" r="18"/>
    <circle cx="1103.125" cy="1272" r="18"/>
    <circle cx="1159.125" cy="1272" r="18"/>
    <circle cx="1131.125" cy="1328" r="18"/>
    <circle cx="1187.125" cy="1328" r="18"/>
    <circle cx="1159.125" cy="1384" r="18"/>
    <circle cx="1215.125" cy="1384" r="18"/>
    <circle cx="1243.125" cy="1272" r="18"/>
    <circle cx="1327.125" cy="1272" r="18"/>
    <circle cx="1299.125" cy="1328" r="18"/>
    <circle cx="1271.125" cy="1384" r="18"/>
    <circle cx="1327.125" cy="1384" r="18"/>
    <circle cx="1355.125" cy="1328" r="18"/>
    <circle cx="1383.125" cy="1272" r="18"/>
    <circle cx="1439.125" cy="1216" r="18"/>
    <circle cx="1439.125" cy="1272" r="18"/>
    <circle cx="1439.125" cy="1328" r="18"/>
    <circle cx="1439.125" cy="1384" r="18"/>
    <circle cx="1211.625" cy="1440" r="18"/>
    <circle cx="1099.625" cy="1496" r="18"/>
    <circle cx="1155.625" cy="1496" r="18"/>
    <circle cx="896.625" cy="1552" r="18"/>
    <circle cx="756.625" cy="1608" r="18"/>
    <circle cx="812.625" cy="1608" r="18"/>
    <circle cx="784.625" cy="1664" r="18"/>
    <circle cx="840.625" cy="1664" r="18"/>
    <circle cx="812.625" cy="1720" r="18"/>
    <circle cx="868.625" cy="1720" r="18"/>
    <circle cx="896.625" cy="1608" r="18"/>
    <circle cx="980.625" cy="1608" r="18"/>
    <circle cx="952.625" cy="1664" r="18"/>
    <circle cx="924.625" cy="1720" r="18"/>
    <circle cx="980.625" cy="1720" r="18"/>
    <circle cx="1008.625" cy="1664" r="18"/>
    <circle cx="1036.625" cy="1608" r="18"/>
    <circle cx="1092.625" cy="1552" r="18"/>
    <circle cx="1092.625" cy="1608" r="18"/>
    <circle cx="1092.625" cy="1664" r="18"/>
    <circle cx="1092.625" cy="1720" r="18"/>
    <circle cx="910.625" cy="1776" r="18"/>
    <circle cx="798.625" cy="1832" r="18"/>
    <circle cx="854.625" cy="1832" r="18"/>
    <circle cx="910.625" cy="1832" r="18"/>
    <circle cx="966.625" cy="1832" r="18"/>
    <circle cx="1022.625" cy="1832" r="18"/>
    <circle cx="1078.625" cy="1776" r="18"/>
    <circle cx="1078.625" cy="1832" r="18"/>
    <circle cx="1078.625" cy="1888" r="18"/>
    <circle cx="1078.625" cy="1944" r="18"/>
    <circle cx="1078.625" cy="2000" r="18"/>
    <circle cx="1162.625" cy="1776" r="18"/>
    <circle cx="1134.625" cy="1832" r="18"/>
    <circle cx="1190.625" cy="1832" r="18"/>
    <circle cx="1162.625" cy="1888" r="18"/>
    <circle cx="1218.625" cy="1888" r="18"/>
    <circle cx="1218.625" cy="1776" r="18"/>
    <circle cx="1274.625" cy="1776" r="18"/>
    <circle cx="1274.625" cy="1832" r="18"/>
    <circle cx="1274.625" cy="1888" r="18"/>
    <circle cx="1162.625" cy="1944" r="18"/>
    <circle cx="1218.625" cy="1944" r="18"/>
    <circle cx="1274.625" cy="1944" r="18"/>
    <circle cx="1330.625" cy="1944" r="18"/>
    <circle cx="1386.625" cy="1944" r="18"/>
    <circle cx="1218.625" cy="1552" r="18"/>
    <circle cx="1190.625" cy="1608" r="18"/>
    <circle cx="1246.625" cy="1608" r="18"/>
    <circle cx="1218.625" cy="1664" r="18"/>
    <circle cx="1274.625" cy="1664" r="18"/>
    <circle cx="1316.625" cy="1552" r="18"/>
    <circle cx="1414.625" cy="1552" r="18"/>
    <circle cx="1414.625" cy="1608" r="18"/>
    <circle cx="1414.625" cy="1664" r="18"/>
    <circle cx="1302.625" cy="1720" r="18"/>
    <circle cx="1358.625" cy="1720" r="18"/>
    <circle cx="1414.625" cy="1720" r="18"/>
    <circle cx="1358.625" cy="1776" r="18"/>
    <circle cx="1330.625" cy="1832" r="18"/>
    <circle cx="1386.625" cy="1832" r="18"/>
    <circle cx="1470.625" cy="1776" r="18"/>
    <circle cx="1442.625" cy="1832" r="18"/>
    <circle cx="1498.625" cy="1832" r="18"/>
    <circle cx="1470.625" cy="1720" r="18"/>
    <circle cx="1526.625" cy="1720" r="18"/>
    <circle cx="1211.625" cy="1496" r="18"/>
    <circle cx="1267.625" cy="1496" r="18"/>
    <circle cx="1323.625" cy="1496" r="18"/>
    <circle cx="1470.625" cy="1440" r="18"/>
    <circle cx="1470.625" cy="1496" r="18"/>
    <circle cx="1470.625" cy="1552" r="18"/>
    <circle cx="1470.625" cy="1608" r="18"/>
    <circle cx="1470.625" cy="1664" r="18"/>
    <circle cx="1554.625" cy="1440" r="18"/>
    <circle cx="1526.625" cy="1496" r="18"/>
    <circle cx="1582.625" cy="1496" r="18"/>
    <circle cx="1554.625" cy="1552" r="18"/>
    <circle cx="1610.625" cy="1552" r="18"/>
    <circle cx="1610.625" cy="1440" r="18"/>
    <circle cx="1666.625" cy="1440" r="18"/>
    <circle cx="1666.625" cy="1496" r="18"/>
    <circle cx="1666.625" cy="1552" r="18"/>
    <circle cx="1554.625" cy="1608" r="18"/>
    <circle cx="1610.625" cy="1608" r="18"/>
    <circle cx="1666.625" cy="1608" r="18"/>
    <circle cx="1722.625" cy="1608" r="18"/>
    <circle cx="1778.625" cy="1608" r="18"/>
    <circle cx="1659.625" cy="1216" r="18"/>
    <circle cx="1631.625" cy="1272" r="18"/>
    <circle cx="1687.625" cy="1272" r="18"/>
    <circle cx="1659.625" cy="1328" r="18"/>
    <circle cx="1715.625" cy="1328" r="18"/>
    <circle cx="1852.125" cy="1216" r="18"/>
    <circle cx="2044.625" cy="1216" r="18"/>
    <circle cx="2044.625" cy="1272" r="18"/>
    <circle cx="2044.625" cy="1328" r="18"/>
    <circle cx="1932.625" cy="1384" r="18"/>
    <circle cx="1988.625" cy="1384" r="18"/>
    <circle cx="2044.625" cy="1384" r="18"/>
    <circle cx="1988.625" cy="1440" r="18"/>
    <circle cx="1960.625" cy="1496" r="18"/>
    <circle cx="2016.625" cy="1496" r="18"/>
    <circle cx="2100.625" cy="1440" r="18"/>
    <circle cx="2072.625" cy="1496" r="18"/>
    <circle cx="2128.625" cy="1496" r="18"/>
    <circle cx="1946.625" cy="1552" r="18"/>
    <circle cx="1834.625" cy="1608" r="18"/>
    <circle cx="1890.625" cy="1608" r="18"/>
    <circle cx="1946.625" cy="1608" r="18"/>
    <circle cx="2002.625" cy="1608" r="18"/>
    <circle cx="2058.625" cy="1608" r="18"/>
    <circle cx="2114.625" cy="1552" r="18"/>
    <circle cx="2114.625" cy="1608" r="18"/>
    <circle cx="2114.625" cy="1664" r="18"/>
    <circle cx="2114.625" cy="1720" r="18"/>
    <circle cx="2114.625" cy="1776" r="18"/>
    <circle cx="2198.625" cy="1552" r="18"/>
    <circle cx="2170.625" cy="1608" r="18"/>
    <circle cx="2226.625" cy="1608" r="18"/>
    <circle cx="2198.625" cy="1664" r="18"/>
    <circle cx="2254.625" cy="1664" r="18"/>
    <circle cx="2254.625" cy="1552" r="18"/>
    <circle cx="2310.625" cy="1552" r="18"/>
    <circle cx="2310.625" cy="1608" r="18"/>
    <circle cx="2310.625" cy="1664" r="18"/>
    <circle cx="2198.625" cy="1720" r="18"/>
    <circle cx="2254.625" cy="1720" r="18"/>
    <circle cx="2310.625" cy="1720" r="18"/>
    <circle cx="2366.625" cy="1720" r="18"/>
    <circle cx="2422.625" cy="1720" r="18"/>
    <circle cx="2100.625" cy="1384" r="18"/>
    <circle cx="2156.625" cy="1384" r="18"/>
    <circle cx="1456.625" cy="544" r="18"/>
    <circle cx="1428.625" cy="600" r="18"/>
    <circle cx="1484.625" cy="600" r="18"/>
    <circle cx="1456.625" cy="656" r="18"/>
    <circle cx="1512.625" cy="656" r="18"/>
    <circle cx="1683.25" cy="544" r="18"/>
    <circle cx="1909.875" cy="544" r="18"/>
    <circle cx="1909.875" cy="600" r="18"/>
    <circle cx="1909.875" cy="656" r="18"/>
    <circle cx="1797.875" cy="712" r="18"/>
    <circle cx="1853.875" cy="712" r="18"/>
    <circle cx="1909.875" cy="712" r="18"/>
    <circle cx="1853.875" cy="768" r="18"/>
    <circle cx="1825.875" cy="824" r="18"/>
    <circle cx="1881.875" cy="824" r="18"/>
    <circle cx="1965.875" cy="768" r="18"/>
    <circle cx="1937.875" cy="824" r="18"/>
    <circle cx="1993.875" cy="824" r="18"/>
    <circle cx="1811.875" cy="880" r="18"/>
    <circle cx="1699.875" cy="936" r="18"/>
    <circle cx="1755.875" cy="936" r="18"/>
    <circle cx="1811.875" cy="936" r="18"/>
    <circle cx="1867.875" cy="936" r="18"/>
    <circle cx="1923.875" cy="936" r="18"/>
    <circle cx="1979.875" cy="880" r="18"/>
    <circle cx="1979.875" cy="936" r="18"/>
    <circle cx="1979.875" cy="992" r="18"/>
    <circle cx="1979.875" cy="1048" r="18"/>
    <circle cx="1979.875" cy="1104" r="18"/>
    <circle cx="2063.875" cy="880" r="18"/>
    <circle cx="2035.875" cy="936" r="18"/>
    <circle cx="2091.875" cy="936" r="18"/>
    <circle cx="2063.875" cy="992" r="18"/>
    <circle cx="2119.875" cy="992" r="18"/>
    <circle cx="2119.875" cy="880" r="18"/>
    <circle cx="2175.875" cy="880" r="18"/>
    <circle cx="2175.875" cy="936" r="18"/>
    <circle cx="2175.875" cy="992" r="18"/>
    <circle cx="2063.875" cy="1048" r="18"/>
    <circle cx="2119.875" cy="1048" r="18"/>
    <circle cx="2175.875" cy="1048" r="18"/>
    <circle cx="2231.875" cy="1048" r="18"/>
    <circle cx="2287.875" cy="1048" r="18"/>
    <circle cx="1965.875" cy="712" r="18"/>
    <circle cx="2021.875" cy="712" r="18"/>
    <circle cx="1264.271" cy="96" r="18"/>
    <circle cx="1236.271" cy="152" r="18"/>
    <circle cx="1292.271" cy="152" r="18"/>
    <circle cx="1264.271" cy="208" r="18"/>
    <circle cx="1320.271" cy="208" r="18"/>
    <circle cx="1580.073" cy="96" r="18"/>
    <circle cx="1895.875" cy="96" r="18"/>
    <circle cx="1895.875" cy="152" r="18"/>
    <circle cx="1895.875" cy="208" r="18"/>
    <circle cx="1783.875" cy="264" r="18"/>
    <circle cx="1839.875" cy="264" r="18"/>
    <circle cx="1895.875" cy="264" r="18"/>
    <circle cx="1839.875" cy="320" r="18"/>
    <circle cx="1811.875" cy="376" r="18"/>
    <circle cx="1867.875" cy="376" r="18"/>
    <circle cx="1951.875" cy="320" r="18"/>
    <circle cx="1923.875" cy="376" r="18"/>
    <circle cx="1979.875" cy="376" r="18"/>
    <circle cx="1797.875" cy="432" r="18"/>
    <circle cx="1685.875" cy="488" r="18"/>
    <circle cx="1741.875" cy="488" r="18"/>
    <circle cx="1797.875" cy="488" r="18"/>
    <circle cx="1853.875" cy="488" r="18"/>
    <circle cx="1909.875" cy="488" r="18"/>
    <circle cx="1965.875" cy="432" r="18"/>
    <circle cx="1965.875" cy="488" r="18"/>
    <circle cx="1965.875" cy="544" r="18"/>
    <circle cx="1965.875" cy="600" r="18"/>
    <circle cx="1965.875" cy="656" r="18"/>
    <circle cx="2049.875" cy="432" r="18"/>
    <circle cx="2021.875" cy="488" r="18"/>
    <circle cx="2077.875" cy="488" r="18"/>
    <circle cx="2049.875" cy="544" r="18"/>
    <circle cx="2105.875" cy="544" r="18"/>
    <circle cx="2105.875" cy="432" r="18"/>
    <circle cx="2161.875" cy="432" r="18"/>
    <circle cx="2161.875" cy="488" r="18"/>
    <circle cx="2161.875" cy="544" r="18"/>
    <circle cx="2049.875" cy="600" r="18"/>
    <circle cx="2105.875" cy="600" r="18"/>
    <circle cx="2161.875" cy="600" r="18"/>
    <circle cx="2217.875" cy="600" r="18"/>
    <circle cx="2273.875" cy="600" r="18"/>
    <circle cx="1951.875" cy="264" r="18"/>
    <circle cx="2007.875" cy="264" r="18"/>
  </g>
</svg>
