<svg xmlns="http://www.w3.org/2000/svg" viewBox="0 0 850 584" width="850" height="584">
  <g stroke="#475569" stroke-width="2" fill="none">
    <line x1="439" y1="40" x2="180" y2="96"/>
    <line x1="439" y1="40" x2="376" y2="96"/>
    <line x1="439" y1="40" x2="502" y2="96"/>
    <line x1="439" y1="40" x2="600" y2="96"/>
    <line x1="439" y1="40" x2="698" y2="96"/>
    <line x1="180" y1="96" x2="40" y2="152"/>
    <line x1="180" y1="96" x2="96" y2="152"/>
    <line x1="180" y1="96" x2="180" y2="152"/>
    <line x1="180" y1="96" x2="264" y2="152"/>
    <line x1="180" y1="96" x2="320" y2="152"/>
    <line x1="96" y1="152" x2="68" y2="208"/>
    <line x1="96" y1="152" x2="124" y2="208"/>
    <line x1="124" y1="208" x2="96" y2="264"/>
    <line x1="124" y1="208" x2="152" y2="264"/>
    <line x1="264" y1="152" x2="236" y2="208"/>
    <line x1="264" y1="152" x2="292" y2="208"/>
    <line x1="236" y1="208" x2="208" y2="264"/>
    <line x1="236" y1="208" x2="264" y2="264"/>
    <line x1="376" y1="96" x2="376" y2="152"/>
    <line x1="376" y1="152" x2="376" y2="208"/>
    <line x1="376" y1="208" x2="376" y2="264"/>
    <line x1="376" y1="264" x2="194" y2="320"/>
    <line x1="376" y1="264" x2="362" y2="320"/>
    <line x1="376" y1="264" x2="446" y2="320"/>
    <line x1="376" y1="264" x2="502" y2="320"/>
    <line x1="376" y1="264" x2="558" y2="320"/>
    <line x1="194" y1="320" x2="82" y2="376"/>
    <line x1="194" y1="320" x2="138" y2="376"/>
    <line x1="194" y1="320" x2="194" y2="376"/>
    <line x1="194" y1="320" x2="250" y2="376"/>
    <line x1="194" y1="320" x2="306" y2="376"/>
    <line x1="362" y1="320" x2="362" y2="376"/>
    <line x1="362" y1="376" x2="362" y2="432"/>
    <line x1="362" y1="432" x2="362" y2="488"/>
    <line x1="362" y1="488" x2="362" y2="544"/>
    <line x1="446" y1="320" x2="418" y2="376"/>
    <line x1="446" y1="320" x2="474" y2="376"/>
    <line x1="474" y1="376" x2="446" y2="432"/>
    <line x1="474" y1="376" x2="502" y2="432"/>
    <line x1="558" y1="320" x2="558" y2="376"/>
    <line x1="558" y1="376" x2="558" y2="432"/>
    <line x1="558" y1="432" x2="446" y2="488"/>
    <line x1="558" y1="432" x2="502" y2="488"/>
    <line x1="558" y1="432" x2="558" y2="488"/>
    <line x1="558" y1="432" x2="614" y2="488"/>
    <line x1="558" y1="432" x2="670" y2="488"/>
    <line x1="502" y1="96" x2="474" y2="152"/>
    <line x1="502" y1="96" x2="530" y2="152"/>
    <line x1="530" y1="152" x2="502" y2="208"/>
    <line x1="530" y1="152" x2="558" y2="208"/>
    <line x1="698" y1="96" x2="698" y2="152"/>
    <line x1="698" y1="152" x2="698" y2="208"/>
    <line x1="698" y1="208" x2="586" y2="264"/>
    <line x1="698" y1="208" x2="642" y2="264"/>
    <line x1="698" y1="208" x2="698" y2="264"/>
    <line x1="698" y1="208" x2="754" y2="264"/>
    <line x1="698" y1="208" x2="810" y2="264"/>
    <line x1="698" y1="264" x2="642" y2="320"/>
    <line x1="698" y1="264" x2="754" y2="320"/>
    <line x1="642" y1="320" x2="614" y2="376"/>
    <line x1="642" y1="320" x2="670" y2="376"/>
    <line x1="754" y1="320" x2="726" y2="376"/>
    <line x1="754" y1="320" x2="782" y2="376"/>
  </g>
  <g fill="#e2e8f0" stroke="#0f172a" stroke-width="2">
    <circle cx="439" cy="40" r="18"/>
    <circle cx="180" cy="96" r="18"/>
    <circle cx="40" cy="152" r="18"/>
    <circle cx="96" cy="152" r="18"/>
    <circle cx="68" cy="208" r="18"/>
    <circle cx="124" cy="208" r="18"/>
    <circle cx="96" cy="264" r="18"/>
    <circle cx="152" cy="264" r="18"/>
    <circle cx="180" cy="152" r="18"/>
    <circle cx="264" cy="152" r="18"/>
    <circle cx="236" cy="208" r="18"/>
    <circle cx="208" cy="264" r="18"/>
    <circle cx="264" cy="264" r="18"/>
    <circle cx="292" cy="208" r="18"/>
    <circle cx="320" cy="152" r="18"/>
    <circle cx="376" cy="96" r="18"/>
    <circle cx="376" cy="152" r="18"/>
    <circle cx="376" cy="208" r="18"/>
    <circle cx="376" cy="264" r="18"/>
    <circle cx="194" cy="320" r="18"/>
    <circle cx="82" cy="376" r="18"/>
    <circle cx="138" cy="376" r="18"/>
    <circle cx="194" cy="376" r="18"/>
    <circle cx="250" cy="376" r="18"/>
    <circle cx="306" cy="376" r="18"/>
    <circle cx="362" cy="320" r="18"/>
    <circle cx="362" cy="376" r="18"/>
    <circle cx="362" cy="432" r="18"/>
    <circle cx="362" cy="488" r="18"/>
    <circle cx="362" cy="544" r="18"/>
    <circle cx="446" cy="320" r="18"/>
    <circle cx="418" cy="376" r="18"/>
    <circle cx="474" cy="376" r="18"/>
    <circle cx="446" cy="432" r="18"/>
    <circle cx="502" cy="432" r="18"/>
    <circle cx="502" cy="320" r="18"/>
    <circle cx="558" cy="320" r="18"/>
    <circle cx="558" cy="376" r="18"/>
    <circle cx="558" cy="432" r="18"/>
    <circle cx="446" cy="488" r="18"/>
    <circle cx="502" cy="488" r="18"/>
    <circle cx="558" cy="488" r="18"/>
    <circle cx="614" cy="488" r="18"/>
    <circle cx="670" cy="488" r="18"/>
    <circle cx="502" cy="96" r="18"/>
    <circle cx="474" cy="152" r="18"/>
    <circle cx="530" cy="152" r="18"/>
    <circle cx="502" cy="208" r="18"/>
    <circle cx="558" cy="208" r="18"/>
    <circle cx="600" cy="96" r="18"/>
    <circle cx="698" cy="96" r="18"/>
    <circle cx="698" cy="152" r="18"/>
    <circle cx="698" cy="208" r="18"/>
    <circle cx="586" cy="264" r="18"/>
    <circle cx="642" cy="264" r="18"/>
    <circle cx="698" cy="264" r="18"/>
    <circle cx="642" cy="320" r="18"/>
    <circle cx="614" cy="376" r="18"/>
    <circle cx="670" cy="376" r="18"/>
    <circle cx="754" cy="320" r="18"/>
    <circle cx="726" cy="376" r="18"/>
    <circle cx="782" cy="376" r="18"/>
    <circle cx="754" cy="264" r="18"/>
    <circle cx="810" cy="264" r="18"/>
  </g>
</svg>
