<svg xmlns="http://www.w3.org/2000/svg" viewBox="0 0 668 360" width="668" height="360">
  <g stroke="#475569" stroke-width="2" fill="none">
    <line x1="334" y1="40" x2="152" y2="96"/>
    <line x1="334" y1="40" x2="320" y2="96"/>
    <line x1="334" y1="40" x2="404" y2="96"/>
    <line x1="334" y1="40" x2="460" y2="96"/>
    <line x1="334" y1="40" x2="516" y2="96"/>
    <line x1="152" y1="96" x2="40" y2="152"/>
    <line x1="152" y1="96" x2="96" y2="152"/>
    <line x1="152" y1="96" x2="152" y2="152"/>
    <line x1="152" y1="96" x2="208" y2="152"/>
    <line x1="152" y1="96" x2="264" y2="152"/>
    <line x1="320" y1="96" x2="320" y2="152"/>
    <line x1="320" y1="152" x2="320" y2="208"/>
    <line x1="320" y1="208" x2="320" y2="264"/>
    <line x1="320" y1="264" x2="320" y2="320"/>
    <line x1="404" y1="96" x2="376" y2="152"/>
    <line x1="404" y1="96" x2="432" y2="152"/>
    <line x1="432" y1="152" x2="404" y2="208"/>
    <line x1="432" y1="152" x2="460" y2="208"/>
    <line x1="516" y1="96" x2="516" y2="152"/>
    <line x1="516" y1="152" x2="516" y2="208"/>
    <line x1="516" y1="208" x2="404" y2="264"/>
    <line x1="516" y1="208" x2="460" y2="264"/>
    <line x1="516" y1="208" x2="516" y2="264"/>
    <line x1="516" y1="208" x2="572" y2="264"/>
    <line x1="516" y1="208" x2="628" y2="264"/>
  </g>
  <g fill="#e2e8f0" stroke="#0f172a" stroke-width="2">
    <circle cx="334" cy="40" r="18"/>
    <circle cx="152" cy="96" r="18"/>
    <circle cx="40" cy="152" r="18"/>
    <circle cx="96" cy="152" r="18"/>
    <circle cx="152" cy="152" r="18"/>
    <circle cx="208" cy="152" r="18"/>
    <circle cx="264" cy="152" r="18"/>
    <circle cx="320" cy="96" r="18"/>
    <circle cx="320" cy="152" r="18"/>
    <circle cx="320" cy="208" r="18"/>
    <circle cx="320" cy="264" r="18"/>
    <circle cx="320" cy="320" r="18"/>
    <circle cx="404" cy="96" r="18"/>
    <circle cx="376" cy="152" r="18"/>
    <circle cx="432" cy="152" r="18"/>
    <circle cx="404" cy="208" r="18"/>
    <circle cx="460" cy="208" r="18"/>
    <circle cx="460" cy="96" r="18"/>
    <circle cx="516" cy="96" r="18"/>
    <circle cx="516" cy="152" r="18"/>
    <circle cx="516" cy="208" r="18"/>
    <circle cx="404" cy="264" r="18"/>
    <circle cx="460" cy="264" r="18"/>
    <circle cx="516" cy="264" r="18"/>
    <circle cx="572" cy="264" r="18"/>
    <circle cx="628" cy="264" r="18"/>
  </g>
</svg>
