<svg xmlns="http://www.w3.org/2000/svg" viewBox="0 0 1746 920" width="1746" height="920">
  <g stroke="#475569" stroke-width="2" fill="none">
    <line x1="927.25" y1="40" x2="526.5" y2="96"/>
    <line x1="927.25" y1="40" x2="722.5" y2="96"/>
    <line x1="927.25" y1="40" x2="943" y2="96"/>
    <line x1="927.25" y1="40" x2="1135.5" y2="96"/>
    <line x1="927.25" y1="40" x2="1328" y2="96"/>
    <line x1="526.5" y1="96" x2="386.5" y2="152"/>
    <line x1="526.5" y1="96" x2="442.5" y2="152"/>
    <line x1="526.5" y1="96" x2="526.5" y2="152"/>
    <line x1="526.5" y1="96" x2="610.5" y2="152"/>
    <line x1="526.5" y1="96" x2="666.5" y2="152"/>
    <line x1="442.5" y1="152" x2="414.5" y2="208"/>
    <line x1="442.5" y1="152" x2="470.5" y2="208"/>
    <line x1="470.5" y1="208" x2="442.5" y2="264"/>
    <line x1="470.5" y1="208" x2="498.5" y2="264"/>
    <line x1="610.5" y1="152" x2="582.5" y2="208"/>
    <line x1="610.5" y1="152" x2="638.5" y2="208"/>
    <line x1="582.5" y1="208" x2="554.5" y2="264"/>
    <line x1="582.5" y1="208" x2="610.5" y2="264"/>
    <line x1="722.5" y1="96" x2="722.5" y2="152"/>
    <line x1="722.5" y1="152" x2="722.5" y2="208"/>
    <line x1="722.5" y1="208" x2="722.5" y2="264"/>
    <line x1="722.5" y1="264" x2="495" y2="320"/>
    <line x1="722.5" y1="264" x2="754" y2="320"/>
    <line x1="722.5" y1="264" x2="838" y2="320"/>
    <line x1="722.5" y1="264" x2="894" y2="320"/>
    <line x1="722.5" y1="264" x2="950" y2="320"/>
    <line x1="495" y1="320" x2="383" y2="376"/>
    <line x1="495" y1="320" x2="439" y2="376"/>
    <line x1="495" y1="320" x2="495" y2="376"/>
    <line x1="495" y1="320" x2="551" y2="376"/>
    <line x1="495" y1="320" x2="607" y2="376"/>
    <line x1="439" y1="376" x2="180" y2="432"/>
    <line x1="439" y1="376" x2="376" y2="432"/>
    <line x1="439" y1="376" x2="502" y2="432"/>
    <line x1="439" y1="376" x2="600" y2="432"/>
    <line x1="439" y1="376" x2="698" y2="432"/>
    <line x1="180" y1="432" x2="40" y2="488"/>
    <line x1="180" y1="432" x2="96" y2="488"/>
    <line x1="180" y1="432" x2="180" y2="488"/>
    <line x1="180" y1="432" x2="264" y2="488"/>
    <line x1="180" y1="432" x2="320" y2="488"/>
    <line x1="96" y1="488" x2="68" y2="544"/>
    <line x1="96" y1="488" x2="124" y2="544"/>
    <line x1="124" y1="544" x2="96" y2="600"/>
    <line x1="124" y1="544" x2="152" y2="600"/>
    <line x1="264" y1="488" x2="236" y2="544"/>
    <line x1="264" y1="488" x2="292" y2="544"/>
    <line x1="236" y1="544" x2="208" y2="600"/>
    <line x1="236" y1="544" x2="264" y2="600"/>
    <line x1="376" y1="432" x2="376" y2="488"/>
    <line x1="376" y1="488" x2="376" y2="544"/>
    <line x1="376" y1="544" x2="376" y2="600"/>
    <line x1="376" y1="600" x2="194" y2="656"/>
    <line x1="376" y1="600" x2="362" y2="656"/>
    <line x1="376" y1="600" x2="446" y2="656"/>
    <line x1="376" y1="600" x2="502" y2="656"/>
    <line x1="376" y1="600" x2="558" y2="656"/>
    <line x1="194" y1="656" x2="82" y2="712"/>
    <line x1="194" y1="656" x2="138" y2="712"/>
    <line x1="194" y1="656" x2="194" y2="712"/>
    <line x1="194" y1="656" x2="250" y2="712"/>
    <line x1="194" y1="656" x2="306" y2="712"/>
    <line x1="362" y1="656" x2="362" y2="712"/>
    <line x1="362" y1="712" x2="362" y2="768"/>
    <line x1="362" y1="768" x2="362" y2="824"/>
    <line x1="362" y1="824" x2="362" y2="880"/>
    <line x1="446" y1="656" x2="418" y2="712"/>
    <line x1="446" y1="656" x2="474" y2="712"/>
    <line x1="474" y1="712" x2="446" y2="768"/>
    <line x1="474" y1="712" x2="502" y2="768"/>
    <line x1="558" y1="656" x2="558" y2="712"/>
    <line x1="558" y1="712" x2="558" y2="768"/>
    <line x1="558" y1="768" x2="446" y2="824"/>
    <line x1="558" y1="768" x2="502" y2="824"/>
    <line x1="558" y1="768" x2="558" y2="824"/>
    <line x1="558" y1="768" x2="614" y2="824"/>
    <line x1="558" y1="768" x2="670" y2="824"/>
    <line x1="502" y1="432" x2="474" y2="488"/>
    <line x1="502" y1="432" x2="530" y2="488"/>
    <line x1="530" y1="488" x2="502" y2="544"/>
    <line x1="530" y1="488" x2="558" y2="544"/>
    <line x1="698" y1="432" x2="698" y2="488"/>
    <line x1="698" y1="488" x2="698" y2="544"/>
    <line x1="698" y1="544" x2="586" y2="600"/>
    <line x1="698" y1="544" x2="642" y2="600"/>
    <line x1="698" y1="544" x2="698" y2="600"/>
    <line x1="698" y1="544" x2="754" y2="600"/>
    <line x1="698" y1="544" x2="810" y2="600"/>
    <line x1="698" y1="600" x2="642" y2="656"/>
    <line x1="698" y1="600" x2="754" y2="656"/>
    <line x1="642" y1="656" x2="614" y2="712"/>
    <line x1="642" y1="656" x2="670" y2="712"/>
    <line x1="754" y1="656" x2="726" y2="712"/>
    <line x1="754" y1="656" x2="782" y2="712"/>
    <line x1="754" y1="320" x2="754" y2="376"/>
    <line x1="754" y1="376" x2="754" y2="432"/>
    <line x1="754" y1="432" x2="754" y2="488"/>
    <line x1="754" y1="488" x2="754" y2="544"/>
    <line x1="838" y1="320" x2="810" y2="376"/>
    <line x1="838" y1="320" x2="866" y2="376"/>
    <line x1="866" y1="376" x2="838" y2="432"/>
    <line x1="866" y1="376" x2="894" y2="432"/>
    <line x1="950" y1="320" x2="950" y2="376"/>
    <line x1="950" y1="376" x2="950" y2="432"/>
    <line x1="950" y1="432" x2="838" y2="488"/>
    <line x1="950" y1="432" x2="894" y2="488"/>
    <line x1="950" y1="432" x2="950" y2="488"/>
    <line x1="950" y1="432" x2="1006" y2="488"/>
    <line x1="950" y1="432" x2="1062" y2="488"/>
    <line x1="943" y1="96" x2="915" y2="152"/>
    <line x1="943" y1="96" x2="971" y2="152"/>
    <line x1="971" y1="152" x2="943" y2="208"/>
    <line x1="971" y1="152" x2="999" y2="208"/>
    <line x1="1328" y1="96" x2="1328" y2="152"/>
    <line x1="1328" y1="152" x2="1328" y2="208"/>
    <line x1="1328" y1="208" x2="1216" y2="264"/>
    <line x1="1328" y1="208" x2="1272" y2="264"/>
    <line x1="1328" y1="208" x2="1328" y2="264"/>
    <line x1="1328" y1="208" x2="1384" y2="264"/>
    <line x1="1328" y1="208" x2="1440" y2="264"/>
    <line x1="1328" y1="264" x2="1272" y2="320"/>
    <line x1="1328" y1="264" x2="1384" y2="320"/>
    <line x1="1272" y1="320" x2="1244" y2="376"/>
    <line x1="1272" y1="320" x2="1300" y2="376"/>
    <line x1="1384" y1="320" x2="1356" y2="376"/>
    <line x1="1384" y1="320" x2="1412" y2="376"/>
    <line x1="1412" y1="376" x2="1230" y2="432"/>
    <line x1="1412" y1="376" x2="1398" y2="432"/>
    <line x1="1412" y1="376" x2="1482" y2="432"/>
    <line x1="1412" y1="376" x2="1538" y2="432"/>
    <line x1="1412" y1="376" x2="1594" y2="432"/>
    <line x1="1230" y1="432" x2="1118" y2="488"/>
    <line x1="1230" y1="432" x2="1174" y2="488"/>
    <line x1="1230" y1="432" x2="1230" y2="488"/>
    <line x1="1230" y1="432" x2="1286" y2="488"/>
    <line x1="1230" y1="432" x2="1342" y2="488"/>
    <line x1="1398" y1="432" x2="1398" y2="488"/>
    <line x1="1398" y1="488" x2="1398" y2="544"/>
    <line x1="1398" y1="544" x2="1398" y2="600"/>
    <line x1="1398" y1="600" x2="1398" y2="656"/>
    <line x1="1482" y1="432" x2="1454" y2="488"/>
    <line x1="1482" y1="432" x2="1510" y2="488"/>
    <line x1="1510" y1="488" x2="1482" y2="544"/>
    <line x1="1510" y1="488" x2="1538" y2="544"/>
    <line x1="1594" y1="432" x2="1594" y2="488"/>
    <line x1="1594" y1="488" x2="1594" y2="544"/>
    <line x1="1594" y1="544" x2="1482" y2="600"/>
    <line x1="1594" y1="544" x2="1538" y2="600"/>
    <line x1="1594" y1="544" x2="1594" y2="600"/>
    <line x1="1594" y1="544" x2="1650" y2="600"/>
    <line x1="1594" y1="544" x2="1706" y2="600"/>
  </g>
  <g fill="#e2e8f0" stroke="#0f172a" stroke-width="2">
    <circle cx="927.25" cy="40" r="18"/>
    <circle cx="526.5" cy="96" r="18"/>
    <circle cx="386.5" cy="152" r="18"/>
    <circle cx="442.5" cy="152" r="18"/>
    <circle cx="414.5" cy="208" r="18"/>
    <circle cx="470.5" cy="208" r="18"/>
    <circle cx="442.5" cy="264" r="18"/>
    <circle cx="498.5" cy="264" r="18"/>
    <circle cx="526.5" cy="152" r="18"/>
    <circle cx="610.5" cy="152" r="18"/>
    <circle cx="582.5" cy="208" r="18"/>
    <circle cx="554.5" cy="264" r="18"/>
    <circle cx="610.5" cy="264" r="18"/>
    <circle cx="638.5" cy="208" r="18"/>
    <circle cx="666.5" cy="152" r="18"/>
    <circle cx="722.5" cy="96" r="18"/>
    <circle cx="722.5" cy="152" r="18"/>
    <circle cx="722.5" cy="208" r="18"/>
    <circle cx="722.5" cy="264" r="18"/>
    <circle cx="495" cy="320" r="18"/>
    <circle cx="383" cy="376" r="18"/>
    <circle cx="439" cy="376" r="18"/>
    <circle cx="180" cy="432" r="18"/>
    <circle cx="40" cy="488" r="18"/>
    <circle cx="96" cy="488" r="18"/>
    <circle cx="68" cy="544" r="18"/>
    <circle cx="124" cy="544" r="18"/>
    <circle cx="96" cy="600" r="18"/>
    <circle cx="152" cy="600" r="18"/>
    <circle cx="180" cy="488" r="18"/>
    <circle cx="264" cy="488" r="18"/>
    <circle cx="236" cy="544" r="18"/>
    <circle cx="208" cy="600" r="18"/>
    <circle cx="264" cy="600" r="18"/>
    <circle cx="292" cy="544" r="18"/>
    <circle cx="320" cy="488" r="18"/>
    <circle cx="376" cy="432" r="18"/>
    <circle cx="376" cy="488" r="18"/>
    <circle cx="376" cy="544" r="18"/>
    <circle cx="376" cy="600" r="18"/>
    <circle cx="194" cy="656" r="18"/>
    <circle cx="82" cy="712" r="18"/>
    <circle cx="138" cy="712" r="18"/>
    <circle cx="194" cy="712" r="18"/>
    <circle cx="250" cy="712" r="18"/>
    <circle cx="306" cy="712" r="18"/>
    <circle cx="362" cy="656" r="18"/>
    <circle cx="362" cy="712" r="18"/>
    <circle cx="362" cy="768" r="18"/>
    <circle cx="362" cy="824" r="18"/>
    <circle cx="362" cy="880" r="18"/>
    <circle cx="446" cy="656" r="18"/>
    <circle cx="418" cy="712" r="18"/>
    <circle cx="474" cy="712" r="18"/>
    <circle cx="446" cy="768" r="18"/>
    <circle cx="502" cy="768" r="18"/>
    <circle cx="502" cy="656" r="18"/>
    <circle cx="558" cy="656" r="18"/>
    <circle cx="558" cy="712" r="18"/>
    <circle cx="558" cy="768" r="18"/>
    <circle cx="446" cy="824" r="18"/>
    <circle cx="502" cy="824" r="18"/>
    <circle cx="558" cy="824" r="18"/>
    <circle cx="614" cy="824" r="18"/>
    <circle cx="670" cy="824" r="18"/>
    <circle cx="502" cy="432" r="18"/>
    <circle cx="474" cy="488" r="18"/>
    <circle cx="530" cy="488" r="18"/>
    <circle cx="502" cy="544" r="18"/>
    <circle cx="558" cy="544" r="18"/>
    <circle cx="600" cy="432" r="18"/>
    <circle cx="698" cy="432" r="18"/>
    <circle cx="698" cy="488" r="18"/>
    <circle cx="698" cy="544" r="18"/>
    <circle cx="586" cy="600" r="18"/>
    <circle cx="642" cy="600" r="18"/>
    <circle cx="698" cy="600" r="18"/>
    <circle cx="642" cy="656" r="18"/>
    <circle cx="614" cy="712" r="18"/>
    <circle cx="670" cy="712" r="18"/>
    <circle cx="754" cy="656" r="18"/>
    <circle cx="726" cy="712" r="18"/>
    <circle cx="782" cy="712" r="18"/>
    <circle cx="754" cy="600" r="18"/>
    <circle cx="810" cy="600" r="18"/>
    <circle cx="495" cy="376" r="18"/>
    <circle cx="551" cy="376" r="18"/>
    <circle cx="607" cy="376" r="18"/>
    <circle cx="754" cy="320" r="18"/>
    <circle cx="754" cy="376" r="18"/>
    <circle cx="754" cy="432" r="18"/>
    <circle cx="754" cy="488" r="18"/>
    <circle cx="754" cy="544" r="18"/>
    <circle cx="838" cy="320" r="18"/>
    <circle cx="810" cy="376" r="18"/>
    <circle cx="866" cy="376" r="18"/>
    <circle cx="838" cy="432" r="18"/>
    <circle cx="894" cy="432" r="18"/>
    <circle cx="894" cy="320" r="18"/>
    <circle cx="950" cy="320" r="18"/>
    <circle cx="950" cy="376" r="18"/>
    <circle cx="950" cy="432" r="18"/>
    <circle cx="838" cy="488" r="18"/>
    <circle cx="894" cy="488" r="18"/>
    <circle cx="950" cy="488" r="18"/>
    <circle cx="1006" cy="488" r="18"/>
    <circle cx="1062" cy="488" r="18"/>
    <circle cx="943" cy="96" r="18"/>
    <circle cx="915" cy="152" r="18"/>
    <circle cx="971" cy="152" r="18"/>
    <circle cx="943" cy="208" r="18"/>
    <circle cx="999" cy="208" r="18"/>
    <circle cx="1135.5" cy="96" r="18"/>
    <circle cx="1328" cy="96" r="18"/>
    <circle cx="1328" cy="152" r="18"/>
    <circle cx="1328" cy="208" r="18"/>
    <circle cx="1216" cy="264" r="18"/>
    <circle cx="1272" cy="264" r="18"/>
    <circle cx="1328" cy="264" r="18"/>
    <circle cx="1272" cy="320" r="18"/>
    <circle cx="1244" cy="376" r="18"/>
    <circle cx="1300" cy="376" r="18"/>
    <circle cx="1384" cy="320" r="18"/>
    <circle cx="1356" cy="376" r="18"/>
    <circle cx="1412" cy="376" r="18"/>
    <circle cx="1230" cy="432" r="18"/>
    <circle cx="1118" cy="488" r="18"/>
    <circle cx="1174" cy="488" r="18"/>
    <circle cx="1230" cy="488" r="18"/>
    <circle cx="1286" cy="488" r="18"/>
    <circle cx="1342" cy="488" r="18"/>
    <circle cx="1398" cy="432" r="18"/>
    <circle cx="1398" cy="488" r="18"/>
    <circle cx="1398" cy="544" r="18"/>
    <circle cx="1398" cy="600" r="18"/>
    <circle cx="1398" cy="656" r="18"/>
    <circle cx="1482" cy="432" r="18"/>
    <circle cx="1454" cy="488" r="18"/>
    <circle cx="1510" cy="488" r="18"/>
    <circle cx="1482" cy="544" r="18"/>
    <circle cx="1538" cy="544" r="18"/>
    <circle cx="1538" cy="432" r="18"/>
    <circle cx="1594" cy="432" r="18"/>
    <circle cx="1594" cy="488" r="18"/>
    <circle cx="1594" cy="544" r="18"/>
    <circle cx="1482" cy="600" r="18"/>
    <circle cx="1538" cy="600" r="18"/>
    <circle cx="1594" cy="600" r="18"/>
    <circle cx="1650" cy="600" r="18"/>
    <circle cx="1706" cy="600" r="18"/>
    <circle cx="1384" cy="264" r="18"/>
    <circle cx="1440" cy="264" r="18"/>
  </g>
</svg>
