<svg xmlns="http://www.w3.org/2000/svg" viewBox="0 0 388 696" width="388" height="696">
  <g stroke="#475569" stroke-width="2" fill="none">
    <line x1="166" y1="40" x2="166" y2="96"/>
    <line x1="166" y1="96" x2="166" y2="152"/>
    <line x1="166" y1="152" x2="124" y2="208"/>
    <line x1="166" y1="152" x2="208" y2="208"/>
    <line x1="124" y1="208" x2="96" y2="264"/>
    <line x1="124" y1="208" x2="152" y2="264"/>
    <line x1="208" y1="208" x2="208" y2="264"/>
    <line x1="208" y1="264" x2="96" y2="320"/>
    <line x1="208" y1="264" x2="208" y2="320"/>
    <line x1="208" y1="264" x2="320" y2="320"/>
    <line x1="96" y1="320" x2="68" y2="376"/>
    <line x1="96" y1="320" x2="124" y2="376"/>
    <line x1="68" y1="376" x2="68" y2="432"/>
    <line x1="68" y1="432" x2="40" y2="488"/>
    <line x1="68" y1="432" x2="96" y2="488"/>
    <line x1="96" y1="488" x2="96" y2="544"/>
    <line x1="96" y1="544" x2="96" y2="600"/>
    <line x1="96" y1="600" x2="96" y2="656"/>
    <line x1="124" y1="376" x2="124" y2="432"/>
    <line x1="208" y1="320" x2="208" y2="376"/>
    <line x1="208" y1="376" x2="180" y2="432"/>
    <line x1="208" y1="376" x2="236" y2="432"/>
    <line x1="236" y1="432" x2="208" y2="488"/>
    <line x1="236" y1="432" x2="264" y2="488"/>
    <line x1="320" y1="320" x2="320" y2="376"/>
    <line x1="320" y1="376" x2="320" y2="432"/>
    <line x1="320" y1="432" x2="320" y2="488"/>
    <line x1="320" y1="488" x2="292" y2="544"/>
    <line x1="320" y1="488" x2="348" y2="544"/>
    <line x1="292" y1="544" x2="264" y2="600"/>
    <line x1="292" y1="544" x2="320" y2="600"/>
    <line x1="264" y1="600" x2="236" y2="656"/>
    <line x1="264" y1="600" x2="292" y2="656"/>
  </g>
  <g fill="#e2e8f0" stroke="#0f172a" stroke-width="2">
    <circle cx="166" cy="40" r="18"/>
    <circle cx="166" cy="96" r="18"/>
    <circle cx="166" cy="152" r="18"/>
    <circle cx="124" cy="208" r="18"/>
    <circle cx="96" cy="264" r="18"/>
    <circle cx="152" cy="264" r="18"/>
    <circle cx="208" cy="208" r="18"/>
    <circle cx="208" cy="264" r="18"/>
    <circle cx="96" cy="320" r="18"/>
    <circle cx="68" cy="376" r="18"/>
    <circle cx="68" cy="432" r="18"/>
    <circle cx="40" cy="488" r="18"/>
    <circle cx="96" cy="488" r="18"/>
    <circle cx="96" cy="544" r="18"/>
    <circle cx="96" cy="600" r="18"/>
    <circle cx="96" cy="656" r="18"/>
    <circle cx="124" cy="376" r="18"/>
    <circle cx="124" cy="432" r="18"/>
    <circle cx="208" cy="320" r="18"/>
    <circle cx="208" cy="376" r="18"/>
    <circle cx="180" cy="432" r="18"/>
    <circle cx="236" cy="432" r="18"/>
    <circle cx="208" cy="488" r="18"/>
    <circle cx="264" cy="488" r="18"/>
    <circle cx="320" cy="320" r="18"/>
    <circle cx="320" cy="376" r="18"/>
    <circle cx="320" cy="432" r="18"/>
    <circle cx="320" cy="488" r="18"/>
    <circle cx="292" cy="544" r="18"/>
    <circle cx="264" cy="600" r="18"/>
    <circle cx="236" cy="656" r="18"/>
    <circle cx="292" cy="656" r="18"/>
    <circle cx="320" cy="600" r="18"/>
    <circle cx="348" cy="544" r="18"/>
  </g>
</svg>
